<?xml version="1.0" standalone="no"?>
<!DOCTYPE svg PUBLIC "-//W3C//DTD SVG 20010904//EN"
 "http://www.w3.org/TR/2001/REC-SVG-20010904/DTD/svg10.dtd">
<svg version="1.0" xmlns="http://www.w3.org/2000/svg"
 width="316.000000pt" height="316.000000pt" viewBox="0 0 316.000000 316.000000"
 preserveAspectRatio="xMidYMid meet">
<metadata>
Created by potrace 1.16, written by Peter Selinger 2001-2019
</metadata>
<g transform="translate(0.000000,316.000000) scale(0.100000,-0.100000)"
fill="#000000" stroke="none">
<path d="M0 1580 l0 -1580 64 0 64 0 6 67 c3 38 12 154 20 258 46 577 51 629
76 720 42 158 86 257 138 310 67 70 241 210 308 249 34 20 65 60 39 50 -7 -3
-22 -1 -32 5 -14 8 -6 10 37 9 48 -1 68 6 155 51 55 28 107 61 116 73 12 15
44 28 105 44 49 12 93 20 97 17 5 -3 7 -22 6 -42 -2 -20 1 -65 6 -101 5 -36 8
-69 6 -74 -1 -4 5 -19 14 -33 17 -25 14 -53 -5 -53 -7 0 -8 6 -1 19 8 14 7 22
-3 30 -7 6 -16 8 -19 5 -3 -3 -22 -6 -42 -6 -27 0 -45 8 -67 29 l-31 28 24
-44 c31 -57 114 -124 214 -173 93 -45 105 -55 109 -92 2 -19 14 -35 34 -48 18
-11 32 -24 32 -28 0 -17 52 -28 157 -32 40 -1 59 4 87 23 20 13 39 32 42 42 3
11 12 16 20 13 8 -3 14 -1 14 4 0 6 9 10 20 10 18 0 35 19 119 130 44 58 151
230 181 290 18 36 34 67 36 69 2 2 18 -5 36 -16 18 -11 49 -23 68 -27 19 -3
59 -22 87 -41 29 -19 57 -35 62 -35 6 0 42 -28 82 -62 64 -55 78 -74 116 -155
24 -51 48 -117 53 -147 8 -50 19 -96 40 -171 29 -106 58 -424 62 -687 4 -222
4 -222 -104 -240 -60 -10 -69 -9 -100 10 -18 11 -58 25 -88 31 -30 6 -64 13
-75 16 -16 5 -24 -1 -36 -26 -14 -29 -13 -40 15 -150 l29 -119 384 0 383 0 0
1580 0 1580 -1580 0 -1580 0 0 -1580z m1618 1102 c18 -59 33 -115 32 -125 0
-39 18 -54 82 -66 35 -7 73 -17 85 -23 12 -6 29 -8 37 -5 8 3 18 2 21 -3 4 -6
15 -10 26 -10 10 0 19 -4 19 -10 0 -5 9 -10 20 -10 11 0 20 -4 20 -9 0 -5 9
-12 19 -16 49 -15 -12 -65 -80 -65 -15 0 -31 -5 -35 -11 -8 -14 -90 -49 -114
-49 -11 0 -37 -18 -59 -40 -36 -36 -39 -43 -34 -80 9 -64 -9 -88 -73 -96 -42
-5 -57 -3 -69 10 -25 24 -51 19 -74 -13 -20 -27 -20 -67 0 -56 5 3 11 -6 15
-20 3 -14 10 -25 15 -25 17 0 9 -39 -12 -59 -20 -19 -23 -19 -56 -3 -32 15
-34 19 -31 57 3 22 -1 56 -8 77 -14 40 -12 87 3 97 10 6 23 48 26 83 1 9 6 14
11 11 5 -4 7 1 3 11 -4 9 -3 15 1 12 4 -2 18 9 31 25 17 22 32 29 60 30 22 1
28 3 14 6 -18 3 -20 7 -10 18 6 7 15 11 19 9 4 -3 26 -6 50 -9 24 -2 36 -2 28
1 -9 2 -21 13 -27 23 -11 17 -8 21 23 36 28 13 35 21 31 37 -3 11 -1 28 5 38
11 18 -8 123 -48 264 -16 57 -17 66 -6 66 4 0 22 -49 40 -108z"/>
</g>
</svg>
